Coordinates
version=1
nRows=21
nColumns=22
inDegrees=yes

Units are S.I. units (second, meters, Newtons, ...)
If the header above contains a line with 'inDegrees', this indicates whether rotational values are in degrees (yes) or radians (no).

endheader
time	pelvis_tilt	pelvis_list	pelvis_rotation	pelvis_tx	pelvis_ty	pelvis_tz	hip_flexion_r	hip_adduction_r	hip_rotation_r	knee_angle_r	ankle_angle_r	subtalar_angle_r	hip_flexion_l	hip_adduction_l	hip_rotation_l	knee_angle_l	ankle_angle_l	subtalar_angle_l	lumbar_extension	lumbar_bending	lumbar_rotation
      5.08000000	      2.60082543	     -0.54798487	    -32.71528643	      0.40852550	      0.88802258	      0.31763479	    -13.44514318	     -0.62215294	     -2.50454511	    -16.28992992	     20.99552658	     -3.40339308	     20.67556084	     -3.93666267	    -10.96206691	    -23.69360398	      5.65109565	     -0.38774500	     -7.37279464	     -2.43034127	      5.40319602
      5.09000000	      2.60627307	     -0.42891769	    -32.93592698	      0.41395556	      0.88863968	      0.31815413	    -13.36256315	     -0.98551953	     -2.26912297	    -16.83514536	     20.58902184	     -3.04274310	     20.38422685	     -3.70354952	    -11.19237018	    -23.72796773	      5.74735712	     -0.75469175	     -7.26801667	     -2.49809235	      5.49431759
      5.10000000	      2.58390633	     -0.26719092	    -33.15619837	      0.41941760	      0.88919514	      0.31863472	    -13.19378282	     -1.36583755	     -1.98116578	    -17.43717984	     20.19496505	     -2.91224878	     20.11652643	     -3.44235823	    -11.46239837	    -23.71679550	      5.86718511	     -0.89931478	     -7.09949183	     -2.58678745	      5.58094888
      5.11000000	      2.59535877	     -0.13469809	    -33.38079535	      0.42489030	      0.88982728	      0.31908969	    -13.02364133	     -1.74215554	     -1.71513506	    -18.11838755	     19.77682384	     -2.57940093	     19.76792698	     -3.17585946	    -11.73659501	    -23.64523397	      6.03880464	     -1.25399020	     -6.98111786	     -2.66461173	      5.66807678
      5.12000000	      2.58360351	      0.04024967	    -33.57723787	      0.43043623	      0.89038845	      0.31950465	    -12.79692421	     -2.13062538	     -1.44279243	    -18.81646166	     19.33662924	     -2.42869009	     19.45369739	     -2.86756971	    -11.99736225	    -23.54654058	      6.25642628	     -1.43123606	     -6.79552841	     -2.76389761	      5.70917094
      5.13000000	      2.58907075	      0.20045521	    -33.76037677	      0.43598485	      0.89097950	      0.31986525	    -12.55689803	     -2.51061473	     -1.17951367	    -19.57101779	     18.84480766	     -2.23507444	     19.11006472	     -2.54534212	    -12.22537950	    -23.42504558	      6.49012085	     -1.66983879	     -6.63599248	     -2.85529227	      5.75778340
      5.14000000	      2.60413015	      0.35207590	    -33.92779268	      0.44154408	      0.89157418	      0.32020067	    -12.30360032	     -2.88055736	     -0.92186838	    -20.36415149	     18.32745444	     -2.00973090	     18.75244474	     -2.21176981	    -12.42021776	    -23.29386566	      6.72837402	     -1.94612196	     -6.48556883	     -2.94347159	      5.79907412
      5.15000000	      2.62623774	      0.49530985	    -34.08179229	      0.44709667	      0.89216793	      0.32052576	    -12.03377373	     -3.23783721	     -0.65782233	    -21.19580859	     17.76978664	     -1.76674022	     18.38687309	     -1.87258085	    -12.58364795	    -23.15826907	      6.96737587	     -2.23965609	     -6.33993250	     -3.02942628	      5.83202560
      5.16000000	      2.66073634	      0.59660600	    -34.21004309	      0.45262327	      0.89278262	      0.32079162	    -11.76595300	     -3.55909588	     -0.41860104	    -22.07557305	     17.15322261	     -1.32041988	     18.00280977	     -1.54798908	    -12.67814614	    -23.03629238	      7.20798004	     -2.72032488	     -6.23902919	     -3.07971261	      5.87065833
      5.17000000	      2.67337023	      0.72096342	    -34.32954514	      0.45814570	      0.89333230	      0.32109168	    -11.44738625	     -3.87116247	     -0.11743041	    -22.97789682	     16.52073711	     -1.22924156	     17.64607360	     -1.22003544	    -12.79267876	    -22.89783679	      7.42976723	     -2.84461207	     -6.08625064	     -3.14321714	      5.88030523
      5.18000000	      2.69451006	      0.81077130	    -34.46185776	      0.46356378	      0.89388201	      0.32137357	    -11.09263585	     -4.15784323	      0.21282092	    -23.97029287	     15.86318801	     -0.83419702	     17.28560127	     -0.92445865	    -12.89729571	    -22.79429387	      7.64297335	     -3.24490872	     -5.97356455	     -3.18077893	      5.93921838
      5.19000000	      2.70769582	      0.90035818	    -34.58747715	      0.46892201	      0.89439065	      0.32168144	    -10.69168722	     -4.42462531	      0.58896242	    -25.02022182	     15.20453538	     -0.70427191	     16.93639052	     -0.64368263	    -13.02873168	    -22.69019325	      7.81905737	     -3.38733984	     -5.84933917	     -3.22165027	      5.99284001
      5.20000000	      2.70308529	      0.96936512	    -34.70874562	      0.47420185	      0.89486354	      0.32198116	    -10.23655860	     -4.65371893	      0.99645795	    -26.14108209	     14.51635204	     -0.51446700	     16.60410708	     -0.39809776	    -13.16187851	    -22.59971940	      7.99544603	     -3.57313631	     -5.72455127	     -3.23184556	      6.04472402
      5.21000000	      2.68009910	      1.01890671	    -34.82682714	      0.47936820	      0.89529160	      0.32227228	     -9.71045782	     -4.84504821	      1.42202888	    -27.35918473	     13.82743919	     -0.29129668	     16.29369468	     -0.18978001	    -13.30268705	    -22.52527135	      8.16225756	     -3.77036221	     -5.60288643	     -3.21659126	      6.10833732
      5.22000000	      2.64335304	      1.05764538	    -34.94187377	      0.48442707	      0.89568009	      0.32255804	     -9.11759510	     -5.00628024	      1.87303991	    -28.66250491	     13.13007865	     -0.07885735	     16.00522157	     -0.00774794	    -13.45764772	    -22.46909851	      8.32171711	     -3.94816897	     -5.48252083	     -3.18582641	      6.16725213
      5.23000000	      2.57341634	      1.07510851	    -35.04412503	      0.48934616	      0.89600450	      0.32280843	     -8.43326228	     -5.11660799	      2.31461466	    -30.07091075	     12.42674327	      0.20428230	     15.76051486	      0.13124824	    -13.59310212	    -22.44092427	      8.48883945	     -4.16620016	     -5.35697077	     -3.11689745	      6.23365179
      5.24000000	      2.51548798	      1.09303964	    -35.16045542	      0.49412652	      0.89632026	      0.32308846	     -7.69878544	     -5.21457158	      2.81375747	    -31.55796705	     11.70780098	      0.39352512	     15.51192153	      0.26348419	    -13.78425588	    -22.41370224	      8.63319972	     -4.32809612	     -5.25225140	     -3.06563362	      6.27852466
      5.25000000	      2.40010319	      1.09056599	    -35.23349400	      0.49875973	      0.89654402	      0.32327251	     -6.85657001	     -5.24121362	      3.26366429	    -33.13977874	     10.94823925	      0.73176405	     15.34287445	      0.35154326	    -13.89395820	    -22.42704715	      8.81940508	     -4.59448974	     -5.12772574	     -2.95677854	      6.30239490
      5.26000000	      2.32343376	      1.07595814	    -35.34802280	      0.50323336	      0.89681109	      0.32353876	     -5.99466929	     -5.26479123	      3.76060685	    -34.78725962	     10.18268673	      0.91077876	     15.12137347	      0.43458979	    -14.07624936	    -22.41887982	      8.95988498	     -4.77072110	     -5.05347610	     -2.87404613	      6.35748029
      5.27000000	      2.19037965	      1.05152180	    -35.40542421	      0.50757492	      0.89698265	      0.32368788	     -5.04163216	     -5.22146811	      4.20396750	    -36.49219745	      9.36049315	      1.24630808	     14.98675542	      0.49026009	    -14.15030133	    -22.45294129	      9.16041695	     -5.05999045	     -4.95475359	     -2.74194297	      6.34580861
      5.28000000	      2.10940105	      1.01118040	    -35.51190683	      0.51175141	      0.89722725	      0.32394002	     -4.10001618	     -5.17938228	      4.69074160	    -38.22849764	      8.55025656	      1.41624076	     14.78150929	      0.54312117	    -14.30803968	    -22.46041768	      9.30590381	     -5.24129349	     -4.92334092	     -2.64390196	      6.36975775
